<svg width="911" height="220" viewBox="0 0 911 220" fill="none" xmlns="http://www.w3.org/2000/svg">
<g clip-path="url(#clip0_3903_99)">
<rect width="911" height="220" fill="#2E5CFF"/>
<path fill-rule="evenodd" clip-rule="evenodd" d="M396.176 158.183V55.2346H379.183V158.183H396.176ZM229.362 122.128V158.186H211.688V60.6007H249.834C257.341 60.6007 263.835 61.93 269.317 64.5885C274.799 67.247 278.974 70.9332 281.84 75.6475C284.706 80.3613 286.139 85.7346 286.139 91.7666C286.139 98.0667 284.717 103.495 281.874 108.053C279.03 112.61 274.891 116.096 269.454 118.509C264.017 120.922 257.478 122.128 249.834 122.128H229.362ZM229.361 108.187H249.834C256.158 108.187 260.832 106.735 263.858 103.831C266.883 100.926 268.396 96.9493 268.396 91.9003C268.396 88.7729 267.736 85.9019 266.417 83.2879C265.098 80.674 263.05 78.5741 260.275 76.9878C257.5 75.4015 254.02 74.6083 249.834 74.6083H229.361V108.187ZM329.999 159.53C337.051 159.53 343.17 157.944 348.356 154.772C353.543 151.599 357.513 147.22 360.265 141.635C363.017 136.05 364.393 129.727 364.393 122.667V121.26C364.393 114.2 363.017 107.878 360.265 102.292C357.513 96.7073 353.532 92.3172 348.323 89.122C343.113 85.9273 336.96 84.33 329.863 84.33C322.857 84.33 316.76 85.9273 311.574 89.122C306.388 92.3172 302.419 96.7073 299.666 102.292C296.914 107.878 295.537 114.2 295.537 121.26V122.667C295.537 129.727 296.914 136.05 299.666 141.635C302.419 147.22 306.399 151.599 311.608 154.772C316.817 157.944 322.948 159.53 329.999 159.53ZM316.897 139.559C319.809 143.938 324.176 146.127 330 146.127C333.866 146.127 337.108 145.088 339.724 143.01C342.34 140.933 344.274 138.129 345.525 134.599C346.776 131.069 347.401 127.093 347.401 122.669V121.262C347.401 116.882 346.776 112.917 345.525 109.365C344.274 105.812 342.329 102.987 339.69 100.886C337.051 98.7863 333.776 97.7361 329.863 97.7361C325.996 97.7361 322.766 98.7863 320.173 100.886C317.58 102.987 315.657 105.812 314.406 109.365C313.155 112.917 312.529 116.882 312.529 121.262V122.669C312.529 129.55 313.986 135.18 316.897 139.559ZM435.567 182.07C432.086 185.667 427.116 187.465 420.655 187.465C418.426 187.465 415.72 187.063 412.535 186.259V173.457L415.674 173.592C419.723 173.592 422.805 172.888 424.921 171.48C427.036 170.073 428.708 167.604 429.937 164.074L432.257 157.908L406.325 85.657H424.682L440.036 134.316L454.913 85.657H472.997L443.585 169.168C441.72 174.172 439.047 178.473 435.567 182.07ZM499.252 158.19V105.778C501.982 100.55 506.599 97.9359 513.105 97.9359C517.382 97.9359 520.621 98.9635 522.829 101.019C525.037 103.074 526.141 106.537 526.141 111.407V158.19H543.132V109.866L543.063 108.325C544.062 105.152 545.759 102.628 548.147 100.751C550.536 98.8743 553.505 97.9359 557.055 97.9359C561.374 97.9359 564.616 98.9079 566.778 100.851C568.94 102.795 570.021 106.247 570.021 111.207V158.19H587.012V111.274C587.012 101.935 584.943 95.1094 580.8 90.798C576.662 86.486 570.677 84.33 562.856 84.33C557.892 84.33 553.505 85.3021 549.681 87.2456C545.864 89.1891 542.697 91.9038 540.198 95.3891C538.333 91.6358 535.671 88.8539 532.214 87.0447C528.756 85.2349 524.706 84.33 520.066 84.33C515.516 84.33 511.456 85.1006 507.885 86.6423C504.313 88.1841 501.277 90.4067 498.775 93.3112L498.228 85.6703H482.26V158.19H499.252ZM637.491 157.319C634.26 158.793 630.599 159.53 626.502 159.53C621.679 159.53 617.362 158.592 613.538 156.715C609.715 154.839 606.734 152.247 604.601 148.941C602.463 145.634 601.394 141.925 601.394 137.815C601.394 130.085 604.316 124.164 610.162 120.053C616.008 115.943 624.3 113.888 635.033 113.888H645.271V109.196C645.271 105.353 644.202 102.348 642.064 100.181C639.925 98.014 636.764 96.9302 632.575 96.9302C630.076 96.9302 627.868 97.3552 625.956 98.2039C624.044 99.0527 622.568 100.215 621.522 101.689C620.476 103.164 619.953 104.817 619.953 106.649H602.962C602.962 102.761 604.223 99.1088 606.745 95.6907C609.273 92.2726 612.864 89.5243 617.53 87.4465C622.191 85.3687 627.525 84.33 633.533 84.33C639.176 84.33 644.156 85.2685 648.479 87.1449C652.802 89.0218 656.178 91.8367 658.613 95.59C661.048 99.3433 662.262 103.923 662.262 109.33V141.3C662.262 147.913 663.198 153.163 665.063 157.05V158.19H647.729C646.997 156.626 646.364 154.369 645.818 151.421C643.493 153.878 640.722 155.844 637.491 157.319ZM629.78 146.189C626.189 146.189 623.388 145.261 621.389 143.408C619.384 141.553 618.385 139.151 618.385 136.202C618.385 132.404 619.907 129.455 622.958 127.355C626.003 125.255 630.489 124.205 636.398 124.205H645.271V137.744C643.999 140.067 641.982 142.056 639.234 143.709C636.48 145.362 633.33 146.189 629.78 146.189ZM696.297 108.793V158.19H679.306V85.6703H695.477L695.954 93.8473C697.819 90.809 700.144 88.4631 702.915 86.8097C705.693 85.1568 708.901 84.33 712.538 84.33C713.497 84.33 714.572 84.4192 715.781 84.5981C716.984 84.777 717.884 84.9779 718.477 85.2013L718.337 100.952C716.065 100.594 713.811 100.415 711.585 100.415C703.985 100.415 698.888 103.208 696.297 108.793ZM745.683 158.183V134.657L753.127 127.218L774.622 158.183H794.274L764.046 115.824L791.409 85.6633H770.938L750.739 108.116L745.683 114.282V55.2346H728.762V158.183H745.683ZM851.854 155.643C847.077 158.234 841.296 159.53 834.52 159.53C827.332 159.53 821.05 158 815.681 154.939C810.318 151.879 806.198 147.689 803.333 142.372C800.468 137.055 799.033 131.09 799.033 124.477V121.729C799.033 114.267 800.486 107.71 803.403 102.058C806.314 96.4057 810.318 92.0375 815.408 88.9547C820.504 85.8718 826.24 84.33 832.608 84.33C839.57 84.33 845.416 85.8272 850.146 88.8209C854.876 91.8141 858.414 96.0033 860.756 101.388C863.098 106.772 864.272 113.016 864.272 120.121V127.158H816.164C816.477 130.866 817.459 134.151 819.098 137.01C820.731 139.87 822.951 142.104 825.752 143.713C828.547 145.322 831.812 146.126 835.543 146.126C843.184 146.126 849.326 143.177 853.969 137.279L863.046 145.925C860.361 149.812 856.631 153.052 851.854 155.643ZM847.484 115.095H816.501C817.273 109.599 819.028 105.333 821.759 102.294C824.485 99.2553 828.082 97.7361 832.539 97.7361C837.542 97.7361 841.232 99.2443 843.597 102.261C845.962 105.276 847.258 109.13 847.484 113.822V115.095ZM911.474 157.921C908.202 158.993 904.518 159.529 900.421 159.529C894.413 159.529 889.683 157.898 886.225 154.636C882.768 151.374 881.042 146.169 881.042 139.02V98.0013H869.031V85.6691H881.042V67.9753H898.033V85.6691H910.997V98.0013H898.033V137.88C898.033 140.919 898.666 142.986 899.945 144.08C901.217 145.175 903.129 145.722 905.674 145.722C907.493 145.722 909.428 145.499 911.474 145.052V157.921Z" fill="white"/>
<path d="M136.767 178.495C136.767 185.76 136.767 189.392 134.391 191.192C132.016 192.993 128.519 192.012 121.524 190.049L9.13192 158.51C4.91793 157.328 2.81093 156.737 1.59248 155.129C0.374023 153.522 0.374023 151.333 0.374023 146.957V73.0434C0.374023 68.6667 0.374023 66.4783 1.59248 64.8709C2.81093 63.2634 4.91792 62.6722 9.13191 61.4897L121.524 29.951C128.519 27.9883 132.016 27.007 134.391 28.8077C136.767 30.6084 136.767 34.2405 136.767 41.5047V178.495ZM28.4043 148.228L121.466 174.345V122.113L28.4043 148.228ZM15.6738 136.111L108.717 110L15.6738 83.8887V136.111ZM28.4033 71.7725L121.466 97.8877V45.6553L28.4033 71.7725Z" fill="white"/>
</g>
<defs>
<clipPath id="clip0_3903_99">
<rect width="911" height="220" fill="white"/>
</clipPath>
</defs>
</svg>
